<svg xmlns="http://www.w3.org/2000/svg" xmlns:xlink="http://www.w3.org/1999/xlink" width="55" zoomAndPan="magnify" viewBox="0 0 41.25 41.250001" height="55" preserveAspectRatio="xMidYMid meet" version="1.0"><defs><clipPath id="5892ee490b"><path d="M 0 0 L 40.511719 0 L 40.511719 40.511719 L 0 40.511719 Z M 0 0 " clip-rule="nonzero"/></clipPath><clipPath id="82208d8450"><path d="M 1 1.570312 L 40 1.570312 L 40 39 L 1 39 Z M 1 1.570312 " clip-rule="nonzero"/></clipPath></defs><g clip-path="url(#5892ee490b)"><path fill="#ffffff" d="M 0 0 L 40.511719 0 L 40.511719 40.511719 L 0 40.511719 Z M 0 0 " fill-opacity="1" fill-rule="nonzero"/><path fill="#ffffff" d="M 0 0 L 40.511719 0 L 40.511719 40.511719 L 0 40.511719 Z M 0 0 " fill-opacity="1" fill-rule="nonzero"/></g><g clip-path="url(#82208d8450)"><path fill="#ab7636" d="M 31.742188 18.316406 C 31.675781 18.425781 31.589844 18.519531 31.484375 18.59375 C 31.382812 18.671875 31.265625 18.722656 31.140625 18.753906 C 31.015625 18.785156 30.890625 18.789062 30.761719 18.769531 C 30.632812 18.75 30.515625 18.707031 30.40625 18.640625 C 30.296875 18.570312 30.203125 18.488281 30.125 18.382812 C 30.050781 18.277344 29.996094 18.164062 29.96875 18.039062 C 29.9375 17.914062 29.929688 17.785156 29.953125 17.660156 C 29.972656 17.53125 30.015625 17.414062 30.082031 17.300781 L 32.308594 13.6875 L 32.601562 12.507812 L 34.179688 14.207031 C 34.15625 14.339844 34.109375 14.464844 34.042969 14.582031 Z M 4.582031 18.398438 C 5.722656 16.453125 8.371094 13.195312 6.386719 11.210938 C 6.128906 10.953125 5.832031 10.753906 5.496094 10.617188 C 5.160156 10.476562 4.808594 10.410156 4.445312 10.410156 C 4.082031 10.410156 3.734375 10.476562 3.398438 10.617188 C 3.058594 10.753906 2.761719 10.953125 2.503906 11.210938 C 0.535156 13.179688 3.066406 16.25 4.308594 18.398438 C 4.339844 18.449219 4.386719 18.476562 4.445312 18.476562 C 4.507812 18.476562 4.554688 18.449219 4.582031 18.398438 Z M 4.441406 12.035156 C 4.703125 12.035156 4.929688 12.125 5.113281 12.3125 C 5.300781 12.496094 5.390625 12.722656 5.390625 12.984375 C 5.390625 13.246094 5.300781 13.46875 5.113281 13.65625 C 4.929688 13.839844 4.703125 13.933594 4.441406 13.933594 C 4.179688 13.933594 3.953125 13.839844 3.769531 13.65625 C 3.582031 13.46875 3.492188 13.246094 3.492188 12.984375 C 3.492188 12.722656 3.582031 12.496094 3.769531 12.3125 C 3.953125 12.125 4.179688 12.035156 4.441406 12.035156 Z M 20.277344 38.4375 L 20.277344 31.476562 C 18.140625 31.5 16.019531 31.699219 13.914062 32.070312 C 15.046875 34.71875 17.191406 38.058594 20.277344 38.4375 Z M 30.988281 21.183594 C 30.929688 24.90625 30.304688 28.363281 29.265625 31.242188 C 31.109375 31.636719 32.890625 32.210938 34.617188 32.964844 C 36.027344 31.394531 37.132812 29.636719 37.9375 27.6875 C 38.742188 25.738281 39.199219 23.707031 39.308594 21.601562 C 39.3125 21.488281 39.277344 21.390625 39.199219 21.308594 C 39.121094 21.226562 39.023438 21.183594 38.910156 21.183594 Z M 33.804688 33.820312 C 32.402344 35.199219 30.824219 36.328125 29.0625 37.199219 C 27.300781 38.074219 25.449219 38.652344 23.503906 38.9375 C 25.289062 38.046875 26.871094 36.277344 28.113281 33.894531 C 28.378906 33.390625 28.628906 32.855469 28.863281 32.292969 C 30.558594 32.644531 32.203125 33.15625 33.804688 33.820312 Z M 18.164062 38.933594 C 16.21875 38.652344 14.367188 38.074219 12.605469 37.199219 C 10.847656 36.324219 9.265625 35.199219 7.863281 33.820312 C 9.464844 33.152344 11.109375 32.640625 12.804688 32.289062 C 13.871094 34.855469 15.621094 37.667969 18.164062 38.933594 Z M 7.050781 32.964844 C 8.777344 32.210938 10.558594 31.632812 12.398438 31.238281 C 11.363281 28.359375 10.738281 24.90625 10.679688 21.183594 L 2.757812 21.183594 C 2.644531 21.183594 2.546875 21.226562 2.46875 21.308594 C 2.390625 21.390625 2.355469 21.488281 2.359375 21.601562 C 2.46875 23.707031 2.925781 25.734375 3.730469 27.6875 C 4.535156 29.636719 5.640625 31.394531 7.050781 32.964844 Z M 11.792969 21.183594 L 20.277344 21.183594 L 20.277344 30.363281 C 18 30.390625 15.738281 30.605469 13.496094 31.015625 C 12.472656 28.226562 11.851562 24.84375 11.792969 21.183594 Z M 21.390625 21.183594 L 29.875 21.183594 C 29.820312 24.847656 29.195312 28.230469 28.171875 31.019531 C 25.929688 30.605469 23.667969 30.386719 21.390625 30.363281 Z M 27.132812 33.382812 C 27.351562 32.964844 27.558594 32.527344 27.753906 32.070312 C 25.648438 31.699219 23.527344 31.5 21.390625 31.476562 L 21.390625 38.4375 C 23.601562 38.167969 25.617188 36.285156 27.132812 33.382812 Z M 20.894531 19.195312 C 21.050781 19.195312 21.179688 19.140625 21.289062 19.03125 C 21.398438 18.925781 21.453125 18.792969 21.453125 18.640625 C 21.453125 18.484375 21.398438 18.355469 21.289062 18.246094 C 21.179688 18.136719 21.050781 18.082031 20.894531 18.082031 L 19.785156 18.082031 C 19.632812 18.082031 19.5 18.136719 19.390625 18.246094 C 19.285156 18.355469 19.230469 18.484375 19.230469 18.640625 C 19.230469 18.792969 19.285156 18.925781 19.390625 19.03125 C 19.5 19.140625 19.632812 19.195312 19.785156 19.195312 Z M 16.449219 19.195312 C 16.605469 19.195312 16.734375 19.140625 16.84375 19.03125 C 16.953125 18.925781 17.007812 18.792969 17.007812 18.640625 C 17.007812 18.484375 16.953125 18.355469 16.84375 18.246094 C 16.734375 18.136719 16.605469 18.082031 16.449219 18.082031 L 15.339844 18.082031 C 15.183594 18.082031 15.054688 18.136719 14.945312 18.246094 C 14.835938 18.355469 14.78125 18.484375 14.78125 18.640625 C 14.78125 18.792969 14.835938 18.925781 14.945312 19.03125 C 15.054688 19.140625 15.183594 19.195312 15.339844 19.195312 Z M 12.003906 19.195312 C 12.15625 19.195312 12.289062 19.140625 12.398438 19.03125 C 12.503906 18.925781 12.558594 18.792969 12.558594 18.640625 C 12.558594 18.484375 12.503906 18.355469 12.398438 18.246094 C 12.289062 18.136719 12.15625 18.082031 12.003906 18.082031 L 10.894531 18.082031 C 10.738281 18.082031 10.609375 18.136719 10.5 18.246094 C 10.390625 18.355469 10.335938 18.484375 10.335938 18.640625 C 10.335938 18.792969 10.390625 18.925781 10.5 19.03125 C 10.609375 19.140625 10.738281 19.195312 10.894531 19.195312 Z M 7.558594 19.195312 L 6.445312 19.195312 C 6.292969 19.195312 6.164062 19.140625 6.054688 19.03125 C 5.945312 18.925781 5.890625 18.792969 5.890625 18.640625 C 5.890625 18.484375 5.945312 18.355469 6.054688 18.246094 C 6.164062 18.136719 6.292969 18.082031 6.445312 18.082031 L 7.558594 18.082031 C 7.710938 18.082031 7.84375 18.136719 7.949219 18.246094 C 8.058594 18.355469 8.113281 18.484375 8.113281 18.640625 C 8.113281 18.792969 8.058594 18.925781 7.949219 19.03125 C 7.84375 19.140625 7.710938 19.195312 7.558594 19.195312 Z M 39.175781 17.453125 L 37.726562 13.617188 C 37.675781 13.480469 37.597656 13.359375 37.492188 13.257812 L 35.230469 10.753906 L 35.230469 6.644531 C 35.230469 6.488281 35.199219 6.339844 35.140625 6.195312 C 35.078125 6.050781 34.996094 5.921875 34.882812 5.8125 C 34.773438 5.703125 34.648438 5.617188 34.503906 5.558594 C 34.359375 5.5 34.210938 5.46875 34.054688 5.46875 C 33.738281 5.46875 33.601562 5.554688 33.34375 5.683594 L 28.453125 8.507812 C 28.25 8.628906 28.117188 8.804688 28.054688 9.035156 C 27.996094 9.265625 28.023438 9.484375 28.144531 9.691406 C 28.261719 9.894531 28.4375 10.03125 28.667969 10.09375 C 28.898438 10.152344 29.117188 10.125 29.324219 10.007812 L 32.878906 7.957031 L 32.878906 10.714844 C 32.878906 11.21875 32.941406 11.203125 33.222656 11.542969 L 35.953125 14.480469 L 37.335938 18.144531 C 37.433594 18.398438 37.605469 18.578125 37.851562 18.691406 C 38.097656 18.800781 38.347656 18.808594 38.597656 18.710938 C 38.851562 18.617188 39.035156 18.445312 39.148438 18.203125 C 39.257812 17.957031 39.269531 17.707031 39.175781 17.453125 Z M 28.261719 11.132812 L 25.011719 18.019531 C 24.890625 18.277344 24.699219 18.457031 24.433594 18.558594 C 24.433594 18.570312 24.433594 18.585938 24.433594 18.597656 C 24.433594 18.691406 24.414062 18.785156 24.371094 18.871094 C 24.332031 18.957031 24.273438 19.03125 24.199219 19.089844 C 24.125 19.152344 24.042969 19.191406 23.949219 19.214844 C 23.859375 19.238281 23.765625 19.242188 23.671875 19.222656 C 23.578125 19.203125 23.492188 19.167969 23.414062 19.109375 C 23.339844 19.054688 23.277344 18.984375 23.230469 18.898438 C 23.1875 18.816406 23.160156 18.726562 23.15625 18.628906 C 23.152344 18.535156 23.167969 18.445312 23.203125 18.355469 L 22.425781 17.988281 C 22.296875 17.925781 22.183594 17.84375 22.089844 17.738281 C 21.992188 17.628906 21.921875 17.511719 21.871094 17.375 C 21.824219 17.242188 21.804688 17.105469 21.808594 16.960938 C 21.816406 16.820312 21.851562 16.683594 21.910156 16.554688 L 24.191406 11.71875 C 24.253906 11.589844 24.335938 11.480469 24.441406 11.382812 C 24.546875 11.289062 24.667969 11.214844 24.804688 11.167969 C 24.9375 11.121094 25.074219 11.097656 25.21875 11.105469 C 25.359375 11.113281 25.496094 11.144531 25.625 11.207031 L 26.75 11.738281 L 27.339844 10.488281 C 27.585938 10.796875 27.890625 11.011719 28.261719 11.132812 Z M 34.507812 1.574219 C 34.699219 1.574219 34.882812 1.609375 35.058594 1.683594 C 35.234375 1.753906 35.390625 1.859375 35.523438 1.992188 C 35.660156 2.128906 35.761719 2.285156 35.835938 2.460938 C 35.90625 2.636719 35.945312 2.820312 35.945312 3.007812 C 35.945312 3.199219 35.90625 3.382812 35.835938 3.558594 C 35.761719 3.734375 35.660156 3.890625 35.523438 4.023438 C 35.390625 4.160156 35.234375 4.261719 35.058594 4.335938 C 34.882812 4.40625 34.699219 4.445312 34.507812 4.445312 C 34.320312 4.445312 34.136719 4.40625 33.960938 4.335938 C 33.785156 4.261719 33.628906 4.160156 33.492188 4.023438 C 33.359375 3.890625 33.253906 3.734375 33.183594 3.558594 C 33.109375 3.382812 33.074219 3.199219 33.074219 3.007812 C 33.074219 2.820312 33.109375 2.636719 33.183594 2.460938 C 33.253906 2.285156 33.359375 2.128906 33.492188 1.992188 C 33.628906 1.859375 33.785156 1.753906 33.960938 1.683594 C 34.136719 1.609375 34.320312 1.574219 34.507812 1.574219 Z M 36.339844 9.53125 L 36.339844 7.308594 L 36.871094 7.851562 L 39.25 8.523438 C 39.480469 8.585938 39.65625 8.71875 39.773438 8.925781 C 39.894531 9.132812 39.921875 9.355469 39.859375 9.585938 C 39.796875 9.816406 39.660156 9.992188 39.453125 10.109375 C 39.246094 10.230469 39.027344 10.257812 38.796875 10.195312 Z M 36.339844 9.53125 " fill-opacity="1" fill-rule="evenodd"/></g></svg>